<mxfile host="app.diagrams.net" modified="2022-02-24T06:59:41.635Z" agent="5.0 (Macintosh; Intel Mac OS X 10_15_7) AppleWebKit/537.36 (KHTML, like Gecko) Chrome/98.0.4758.80 Safari/537.36" etag="SicB6ZAlTQ2gnRqRqyQc" version="16.2.4" type="github">
  <diagram id="WGNmqKSmHQidtIcyaDfm" name="Page-1">
    <mxGraphModel dx="946" dy="614" grid="1" gridSize="10" guides="1" tooltips="1" connect="1" arrows="1" fold="1" page="1" pageScale="1" pageWidth="850" pageHeight="1100" math="0" shadow="0">
      <root>
        <mxCell id="0" />
        <mxCell id="1" parent="0" />
        <mxCell id="wbpmNWgGIaeyIuBArlGF-1" style="edgeStyle=orthogonalEdgeStyle;rounded=0;orthogonalLoop=1;jettySize=auto;html=1;exitX=0.5;exitY=0;exitDx=0;exitDy=0;fontSize=12;" edge="1" parent="1" source="wbpmNWgGIaeyIuBArlGF-2">
          <mxGeometry relative="1" as="geometry">
            <mxPoint x="469.3793103448277" y="190" as="targetPoint" />
          </mxGeometry>
        </mxCell>
        <mxCell id="wbpmNWgGIaeyIuBArlGF-2" value="&lt;p&gt;loss_p&lt;/p&gt;" style="rounded=1;whiteSpace=wrap;html=1;fontSize=11;fillColor=#FFFFFF;" vertex="1" parent="1">
          <mxGeometry x="445" y="220" width="49" height="19" as="geometry" />
        </mxCell>
        <mxCell id="wbpmNWgGIaeyIuBArlGF-3" value="" style="rounded=1;whiteSpace=wrap;html=1;dashed=1;fontSize=8;fillColor=#FFFFFF;" vertex="1" parent="1">
          <mxGeometry x="368" y="413" width="70" height="70" as="geometry" />
        </mxCell>
        <mxCell id="wbpmNWgGIaeyIuBArlGF-4" value="" style="ellipse;whiteSpace=wrap;html=1;aspect=fixed;fontSize=6;fillColor=#A680B8;fontColor=#ffffff;strokeColor=#314354;direction=west;" vertex="1" parent="1">
          <mxGeometry x="380" y="470" width="10" height="10" as="geometry" />
        </mxCell>
        <mxCell id="wbpmNWgGIaeyIuBArlGF-5" value="" style="ellipse;whiteSpace=wrap;html=1;aspect=fixed;fontSize=6;fillColor=#FF9933;fontColor=#ffffff;strokeColor=#314354;direction=west;" vertex="1" parent="1">
          <mxGeometry x="400" y="470" width="10" height="10" as="geometry" />
        </mxCell>
        <mxCell id="wbpmNWgGIaeyIuBArlGF-6" value="" style="ellipse;whiteSpace=wrap;html=1;aspect=fixed;fontSize=6;fillColor=#E6FFCC;fontColor=#ffffff;strokeColor=#314354;direction=west;" vertex="1" parent="1">
          <mxGeometry x="420" y="470" width="10" height="10" as="geometry" />
        </mxCell>
        <mxCell id="wbpmNWgGIaeyIuBArlGF-7" value="" style="rounded=0;whiteSpace=wrap;html=1;fillColor=#A680B8;fontColor=#ffffff;strokeColor=#314354;" vertex="1" parent="1">
          <mxGeometry x="380" y="449" width="10" height="10" as="geometry" />
        </mxCell>
        <mxCell id="wbpmNWgGIaeyIuBArlGF-8" value="" style="rounded=0;whiteSpace=wrap;html=1;fillColor=#A680B8;fontColor=#ffffff;strokeColor=#314354;" vertex="1" parent="1">
          <mxGeometry x="380" y="439" width="10" height="10" as="geometry" />
        </mxCell>
        <mxCell id="wbpmNWgGIaeyIuBArlGF-9" value="" style="rounded=0;whiteSpace=wrap;html=1;fillColor=#A680B8;fontColor=#ffffff;strokeColor=#314354;" vertex="1" parent="1">
          <mxGeometry x="380" y="429" width="10" height="10" as="geometry" />
        </mxCell>
        <mxCell id="wbpmNWgGIaeyIuBArlGF-10" value="" style="rounded=0;whiteSpace=wrap;html=1;fillColor=#FF9933;fontColor=#ffffff;strokeColor=#314354;" vertex="1" parent="1">
          <mxGeometry x="400" y="449" width="10" height="10" as="geometry" />
        </mxCell>
        <mxCell id="wbpmNWgGIaeyIuBArlGF-11" value="" style="rounded=0;whiteSpace=wrap;html=1;fillColor=#FF9933;fontColor=#ffffff;strokeColor=#314354;" vertex="1" parent="1">
          <mxGeometry x="400" y="439" width="10" height="10" as="geometry" />
        </mxCell>
        <mxCell id="wbpmNWgGIaeyIuBArlGF-12" value="" style="rounded=0;whiteSpace=wrap;html=1;fillColor=#FF9933;fontColor=#ffffff;strokeColor=#314354;" vertex="1" parent="1">
          <mxGeometry x="400" y="419" width="10" height="10" as="geometry" />
        </mxCell>
        <mxCell id="wbpmNWgGIaeyIuBArlGF-13" value="" style="rounded=0;whiteSpace=wrap;html=1;fillColor=#E6FFCC;fontColor=#ffffff;strokeColor=#314354;" vertex="1" parent="1">
          <mxGeometry x="420" y="449" width="10" height="10" as="geometry" />
        </mxCell>
        <mxCell id="wbpmNWgGIaeyIuBArlGF-14" value="" style="rounded=0;whiteSpace=wrap;html=1;fillColor=#E6FFCC;fontColor=#ffffff;strokeColor=#314354;" vertex="1" parent="1">
          <mxGeometry x="420" y="439" width="10" height="10" as="geometry" />
        </mxCell>
        <mxCell id="wbpmNWgGIaeyIuBArlGF-15" value="" style="rounded=0;whiteSpace=wrap;html=1;fillColor=#E6FFCC;fontColor=#ffffff;strokeColor=#314354;" vertex="1" parent="1">
          <mxGeometry x="420" y="419" width="10" height="10" as="geometry" />
        </mxCell>
        <mxCell id="wbpmNWgGIaeyIuBArlGF-16" value="" style="rounded=0;whiteSpace=wrap;html=1;fillColor=#E6FFCC;fontColor=#ffffff;strokeColor=#314354;" vertex="1" parent="1">
          <mxGeometry x="420" y="429" width="10" height="10" as="geometry" />
        </mxCell>
        <mxCell id="wbpmNWgGIaeyIuBArlGF-17" value="" style="rounded=0;whiteSpace=wrap;html=1;fillColor=#A680B8;fontColor=#ffffff;strokeColor=#314354;" vertex="1" parent="1">
          <mxGeometry x="380" y="419" width="10" height="10" as="geometry" />
        </mxCell>
        <mxCell id="wbpmNWgGIaeyIuBArlGF-18" value="" style="rounded=0;whiteSpace=wrap;html=1;fillColor=#FF9933;fontColor=#ffffff;strokeColor=#314354;" vertex="1" parent="1">
          <mxGeometry x="400" y="429" width="10" height="10" as="geometry" />
        </mxCell>
        <mxCell id="wbpmNWgGIaeyIuBArlGF-19" value="" style="rounded=0;whiteSpace=wrap;html=1;fontSize=11;" vertex="1" parent="1">
          <mxGeometry x="310" y="370" width="102.5" height="20" as="geometry" />
        </mxCell>
        <mxCell id="wbpmNWgGIaeyIuBArlGF-20" value="&lt;font style=&quot;font-size: 11px&quot;&gt;Dynamic Routing&lt;/font&gt;" style="text;html=1;strokeColor=none;fillColor=none;align=center;verticalAlign=middle;whiteSpace=wrap;rounded=0;fontSize=15;" vertex="1" parent="1">
          <mxGeometry x="310" y="365" width="100" height="30" as="geometry" />
        </mxCell>
        <mxCell id="wbpmNWgGIaeyIuBArlGF-21" value="&lt;font style=&quot;font-size: 11px&quot;&gt;Sequence&lt;/font&gt;" style="text;html=1;strokeColor=none;fillColor=none;align=center;verticalAlign=middle;whiteSpace=wrap;rounded=0;fontSize=11;" vertex="1" parent="1">
          <mxGeometry x="373" y="478" width="60" height="30" as="geometry" />
        </mxCell>
        <mxCell id="wbpmNWgGIaeyIuBArlGF-22" value="" style="rounded=0;whiteSpace=wrap;html=1;fillColor=#E6FFCC;fontColor=#ffffff;strokeColor=#314354;" vertex="1" parent="1">
          <mxGeometry x="330" y="330" width="10" height="10" as="geometry" />
        </mxCell>
        <mxCell id="wbpmNWgGIaeyIuBArlGF-23" value="" style="rounded=0;whiteSpace=wrap;html=1;fillColor=#647687;fontColor=#ffffff;strokeColor=#314354;" vertex="1" parent="1">
          <mxGeometry x="330" y="340" width="10" height="10" as="geometry" />
        </mxCell>
        <mxCell id="wbpmNWgGIaeyIuBArlGF-24" value="" style="rounded=0;whiteSpace=wrap;html=1;fillColor=#A680B8;fontColor=#ffffff;strokeColor=#314354;" vertex="1" parent="1">
          <mxGeometry x="330" y="350" width="10" height="10" as="geometry" />
        </mxCell>
        <mxCell id="wbpmNWgGIaeyIuBArlGF-25" value="" style="rounded=0;whiteSpace=wrap;html=1;fillColor=#FF9933;fontColor=#ffffff;strokeColor=#314354;" vertex="1" parent="1">
          <mxGeometry x="330" y="320" width="10" height="10" as="geometry" />
        </mxCell>
        <mxCell id="wbpmNWgGIaeyIuBArlGF-26" value="" style="rounded=0;whiteSpace=wrap;html=1;fillColor=#E6E6E6;fontColor=#ffffff;strokeColor=#314354;" vertex="1" parent="1">
          <mxGeometry x="356.25" y="350" width="10" height="10" as="geometry" />
        </mxCell>
        <mxCell id="wbpmNWgGIaeyIuBArlGF-27" value="" style="rounded=0;whiteSpace=wrap;html=1;fillColor=#E6FFCC;fontColor=#ffffff;strokeColor=#314354;" vertex="1" parent="1">
          <mxGeometry x="356.25" y="340" width="10" height="10" as="geometry" />
        </mxCell>
        <mxCell id="wbpmNWgGIaeyIuBArlGF-28" value="" style="rounded=0;whiteSpace=wrap;html=1;fillColor=#999999;fontColor=#ffffff;strokeColor=#314354;" vertex="1" parent="1">
          <mxGeometry x="356.25" y="330" width="10" height="10" as="geometry" />
        </mxCell>
        <mxCell id="wbpmNWgGIaeyIuBArlGF-29" value="" style="rounded=0;whiteSpace=wrap;html=1;fillColor=#A680B8;fontColor=#ffffff;strokeColor=#314354;" vertex="1" parent="1">
          <mxGeometry x="356.25" y="320" width="10" height="10" as="geometry" />
        </mxCell>
        <mxCell id="wbpmNWgGIaeyIuBArlGF-30" value="" style="rounded=0;whiteSpace=wrap;html=1;fillColor=#999999;fontColor=#ffffff;strokeColor=#314354;" vertex="1" parent="1">
          <mxGeometry x="380" y="350" width="10" height="10" as="geometry" />
        </mxCell>
        <mxCell id="wbpmNWgGIaeyIuBArlGF-31" value="" style="rounded=0;whiteSpace=wrap;html=1;fillColor=#FF9933;fontColor=#ffffff;strokeColor=#314354;" vertex="1" parent="1">
          <mxGeometry x="380" y="340" width="10" height="10" as="geometry" />
        </mxCell>
        <mxCell id="wbpmNWgGIaeyIuBArlGF-32" value="" style="rounded=0;whiteSpace=wrap;html=1;fillColor=#E6FFCC;fontColor=#ffffff;strokeColor=#314354;" vertex="1" parent="1">
          <mxGeometry x="380" y="330" width="10" height="10" as="geometry" />
        </mxCell>
        <mxCell id="wbpmNWgGIaeyIuBArlGF-33" value="" style="rounded=0;whiteSpace=wrap;html=1;fillColor=#647687;fontColor=#ffffff;strokeColor=#314354;" vertex="1" parent="1">
          <mxGeometry x="380" y="320" width="10" height="10" as="geometry" />
        </mxCell>
        <mxCell id="wbpmNWgGIaeyIuBArlGF-34" value="" style="rounded=0;whiteSpace=wrap;html=1;fillColor=#A680B8;fontColor=#ffffff;strokeColor=#314354;" vertex="1" parent="1">
          <mxGeometry x="464" y="340" width="10" height="10" as="geometry" />
        </mxCell>
        <mxCell id="wbpmNWgGIaeyIuBArlGF-35" value="" style="rounded=0;whiteSpace=wrap;html=1;fillColor=#A680B8;fontColor=#ffffff;strokeColor=#314354;" vertex="1" parent="1">
          <mxGeometry x="464" y="330" width="10" height="10" as="geometry" />
        </mxCell>
        <mxCell id="wbpmNWgGIaeyIuBArlGF-36" style="edgeStyle=orthogonalEdgeStyle;rounded=0;orthogonalLoop=1;jettySize=auto;html=1;exitX=0.5;exitY=0;exitDx=0;exitDy=0;entryX=0.5;entryY=1;entryDx=0;entryDy=0;fontSize=15;" edge="1" parent="1" source="wbpmNWgGIaeyIuBArlGF-37" target="wbpmNWgGIaeyIuBArlGF-92">
          <mxGeometry relative="1" as="geometry" />
        </mxCell>
        <mxCell id="wbpmNWgGIaeyIuBArlGF-37" value="" style="rounded=0;whiteSpace=wrap;html=1;fillColor=#A680B8;fontColor=#ffffff;strokeColor=#314354;" vertex="1" parent="1">
          <mxGeometry x="464" y="320" width="10" height="10" as="geometry" />
        </mxCell>
        <mxCell id="wbpmNWgGIaeyIuBArlGF-38" value="" style="rounded=0;whiteSpace=wrap;html=1;fillColor=#FF9933;fontColor=#ffffff;strokeColor=#314354;" vertex="1" parent="1">
          <mxGeometry x="525" y="350" width="10" height="10" as="geometry" />
        </mxCell>
        <mxCell id="wbpmNWgGIaeyIuBArlGF-39" value="" style="rounded=0;whiteSpace=wrap;html=1;fillColor=#FF9933;fontColor=#ffffff;strokeColor=#314354;" vertex="1" parent="1">
          <mxGeometry x="525" y="340" width="10" height="10" as="geometry" />
        </mxCell>
        <mxCell id="wbpmNWgGIaeyIuBArlGF-40" value="" style="rounded=0;whiteSpace=wrap;html=1;fillColor=#FF9933;fontColor=#ffffff;strokeColor=#314354;" vertex="1" parent="1">
          <mxGeometry x="525" y="330" width="10" height="10" as="geometry" />
        </mxCell>
        <mxCell id="wbpmNWgGIaeyIuBArlGF-41" style="edgeStyle=orthogonalEdgeStyle;rounded=0;orthogonalLoop=1;jettySize=auto;html=1;exitX=0.5;exitY=0;exitDx=0;exitDy=0;entryX=0.5;entryY=1;entryDx=0;entryDy=0;fontSize=15;" edge="1" parent="1" source="wbpmNWgGIaeyIuBArlGF-42" target="wbpmNWgGIaeyIuBArlGF-94">
          <mxGeometry relative="1" as="geometry" />
        </mxCell>
        <mxCell id="wbpmNWgGIaeyIuBArlGF-42" value="" style="rounded=0;whiteSpace=wrap;html=1;fillColor=#FF9933;fontColor=#ffffff;strokeColor=#314354;" vertex="1" parent="1">
          <mxGeometry x="525" y="320" width="10" height="10" as="geometry" />
        </mxCell>
        <mxCell id="wbpmNWgGIaeyIuBArlGF-43" value="" style="rounded=0;whiteSpace=wrap;html=1;fillColor=#A680B8;fontColor=#ffffff;strokeColor=#314354;" vertex="1" parent="1">
          <mxGeometry x="464" y="350" width="10" height="10" as="geometry" />
        </mxCell>
        <mxCell id="wbpmNWgGIaeyIuBArlGF-44" value="" style="rounded=0;whiteSpace=wrap;html=1;fillColor=#E6FFCC;fontColor=#ffffff;strokeColor=#314354;" vertex="1" parent="1">
          <mxGeometry x="578" y="350" width="10" height="10" as="geometry" />
        </mxCell>
        <mxCell id="wbpmNWgGIaeyIuBArlGF-45" value="" style="rounded=0;whiteSpace=wrap;html=1;fillColor=#E6FFCC;fontColor=#ffffff;strokeColor=#314354;" vertex="1" parent="1">
          <mxGeometry x="578" y="340" width="10" height="10" as="geometry" />
        </mxCell>
        <mxCell id="wbpmNWgGIaeyIuBArlGF-46" value="" style="rounded=0;whiteSpace=wrap;html=1;fillColor=#E6FFCC;fontColor=#ffffff;strokeColor=#314354;" vertex="1" parent="1">
          <mxGeometry x="578" y="330" width="10" height="10" as="geometry" />
        </mxCell>
        <mxCell id="wbpmNWgGIaeyIuBArlGF-47" value="" style="edgeStyle=orthogonalEdgeStyle;rounded=0;orthogonalLoop=1;jettySize=auto;html=1;fontSize=15;" edge="1" parent="1" source="wbpmNWgGIaeyIuBArlGF-48" target="wbpmNWgGIaeyIuBArlGF-96">
          <mxGeometry relative="1" as="geometry" />
        </mxCell>
        <mxCell id="wbpmNWgGIaeyIuBArlGF-48" value="" style="rounded=0;whiteSpace=wrap;html=1;fillColor=#E6FFCC;fontColor=#ffffff;strokeColor=#314354;" vertex="1" parent="1">
          <mxGeometry x="578" y="320" width="10" height="10" as="geometry" />
        </mxCell>
        <mxCell id="wbpmNWgGIaeyIuBArlGF-49" value="" style="shape=curlyBracket;whiteSpace=wrap;html=1;rounded=1;flipH=1;fillColor=#E6E6E6;gradientColor=#ffffff;rotation=-90;" vertex="1" parent="1">
          <mxGeometry x="353.75" y="347.5" width="15.5" height="105" as="geometry" />
        </mxCell>
        <mxCell id="wbpmNWgGIaeyIuBArlGF-50" value="" style="shape=curlyBracket;whiteSpace=wrap;html=1;rounded=1;flipH=1;fillColor=#E6E6E6;gradientColor=#ffffff;rotation=-90;" vertex="1" parent="1">
          <mxGeometry x="350" y="280" width="20" height="50" as="geometry" />
        </mxCell>
        <mxCell id="wbpmNWgGIaeyIuBArlGF-51" value="" style="ellipse;whiteSpace=wrap;html=1;aspect=fixed;fontSize=6;fillColor=#E6FFCC;fontColor=#ffffff;strokeColor=#314354;direction=west;" vertex="1" parent="1">
          <mxGeometry x="642" y="470" width="10" height="10" as="geometry" />
        </mxCell>
        <mxCell id="wbpmNWgGIaeyIuBArlGF-52" value="" style="ellipse;whiteSpace=wrap;html=1;aspect=fixed;fontSize=6;fillColor=#66B2FF;fontColor=#ffffff;strokeColor=#314354;direction=west;" vertex="1" parent="1">
          <mxGeometry x="690" y="470" width="10" height="10" as="geometry" />
        </mxCell>
        <mxCell id="wbpmNWgGIaeyIuBArlGF-53" value="" style="rounded=0;whiteSpace=wrap;html=1;fillColor=#E6FFCC;fontColor=#ffffff;strokeColor=#314354;" vertex="1" parent="1">
          <mxGeometry x="642" y="440" width="10" height="10" as="geometry" />
        </mxCell>
        <mxCell id="wbpmNWgGIaeyIuBArlGF-54" value="" style="rounded=0;whiteSpace=wrap;html=1;fillColor=#E6FFCC;fontColor=#ffffff;strokeColor=#314354;" vertex="1" parent="1">
          <mxGeometry x="642" y="430" width="10" height="10" as="geometry" />
        </mxCell>
        <mxCell id="wbpmNWgGIaeyIuBArlGF-55" value="" style="rounded=0;whiteSpace=wrap;html=1;fillColor=#E6FFCC;fontColor=#ffffff;strokeColor=#314354;" vertex="1" parent="1">
          <mxGeometry x="642" y="420" width="10" height="10" as="geometry" />
        </mxCell>
        <mxCell id="wbpmNWgGIaeyIuBArlGF-56" value="" style="edgeStyle=orthogonalEdgeStyle;rounded=0;orthogonalLoop=1;jettySize=auto;html=1;fontSize=11;strokeWidth=2;" edge="1" parent="1" source="wbpmNWgGIaeyIuBArlGF-57" target="wbpmNWgGIaeyIuBArlGF-69">
          <mxGeometry relative="1" as="geometry" />
        </mxCell>
        <mxCell id="wbpmNWgGIaeyIuBArlGF-57" value="" style="rounded=0;whiteSpace=wrap;html=1;fillColor=#E6FFCC;fontColor=#ffffff;strokeColor=#314354;" vertex="1" parent="1">
          <mxGeometry x="642" y="410" width="10" height="10" as="geometry" />
        </mxCell>
        <mxCell id="wbpmNWgGIaeyIuBArlGF-58" value="" style="rounded=0;whiteSpace=wrap;html=1;fillColor=#66B2FF;fontColor=#ffffff;strokeColor=#314354;" vertex="1" parent="1">
          <mxGeometry x="690" y="440" width="10" height="10" as="geometry" />
        </mxCell>
        <mxCell id="wbpmNWgGIaeyIuBArlGF-59" value="" style="rounded=0;whiteSpace=wrap;html=1;fillColor=#66B2FF;fontColor=#ffffff;strokeColor=#314354;" vertex="1" parent="1">
          <mxGeometry x="690" y="430" width="10" height="10" as="geometry" />
        </mxCell>
        <mxCell id="wbpmNWgGIaeyIuBArlGF-60" value="" style="rounded=0;whiteSpace=wrap;html=1;fillColor=#66B2FF;fontColor=#ffffff;strokeColor=#314354;" vertex="1" parent="1">
          <mxGeometry x="690" y="420" width="10" height="10" as="geometry" />
        </mxCell>
        <mxCell id="wbpmNWgGIaeyIuBArlGF-61" value="" style="edgeStyle=orthogonalEdgeStyle;rounded=0;orthogonalLoop=1;jettySize=auto;html=1;fontSize=11;strokeWidth=2;" edge="1" parent="1" source="wbpmNWgGIaeyIuBArlGF-62" target="wbpmNWgGIaeyIuBArlGF-73">
          <mxGeometry relative="1" as="geometry" />
        </mxCell>
        <mxCell id="wbpmNWgGIaeyIuBArlGF-62" value="" style="rounded=0;whiteSpace=wrap;html=1;fillColor=#66B2FF;fontColor=#ffffff;strokeColor=#314354;" vertex="1" parent="1">
          <mxGeometry x="690" y="410" width="10" height="10" as="geometry" />
        </mxCell>
        <mxCell id="wbpmNWgGIaeyIuBArlGF-63" value="" style="endArrow=classic;html=1;rounded=0;fontSize=11;strokeWidth=2;" edge="1" parent="1">
          <mxGeometry width="50" height="50" relative="1" as="geometry">
            <mxPoint x="658" y="430" as="sourcePoint" />
            <mxPoint x="688" y="430" as="targetPoint" />
          </mxGeometry>
        </mxCell>
        <mxCell id="wbpmNWgGIaeyIuBArlGF-64" value="" style="rounded=0;whiteSpace=wrap;html=1;fontSize=11;" vertex="1" parent="1">
          <mxGeometry x="620" y="372.5" width="100" height="25" as="geometry" />
        </mxCell>
        <mxCell id="wbpmNWgGIaeyIuBArlGF-65" value="Relation Map" style="text;html=1;strokeColor=none;fillColor=none;align=center;verticalAlign=middle;whiteSpace=wrap;rounded=0;fontSize=11;" vertex="1" parent="1">
          <mxGeometry x="613" y="375.0000000000002" width="110" height="21.75" as="geometry" />
        </mxCell>
        <mxCell id="wbpmNWgGIaeyIuBArlGF-66" value="" style="rounded=0;whiteSpace=wrap;html=1;fillColor=#FF9999;fontColor=#ffffff;strokeColor=#314354;" vertex="1" parent="1">
          <mxGeometry x="642" y="350" width="10" height="10" as="geometry" />
        </mxCell>
        <mxCell id="wbpmNWgGIaeyIuBArlGF-67" value="" style="rounded=0;whiteSpace=wrap;html=1;fillColor=#FF9999;fontColor=#ffffff;strokeColor=#314354;" vertex="1" parent="1">
          <mxGeometry x="642" y="340" width="10" height="10" as="geometry" />
        </mxCell>
        <mxCell id="wbpmNWgGIaeyIuBArlGF-68" value="" style="rounded=0;whiteSpace=wrap;html=1;fillColor=#FF9999;fontColor=#ffffff;strokeColor=#314354;" vertex="1" parent="1">
          <mxGeometry x="642" y="330" width="10" height="10" as="geometry" />
        </mxCell>
        <mxCell id="wbpmNWgGIaeyIuBArlGF-69" value="" style="rounded=0;whiteSpace=wrap;html=1;fillColor=#FF9999;fontColor=#ffffff;strokeColor=#314354;" vertex="1" parent="1">
          <mxGeometry x="642" y="320" width="10" height="10" as="geometry" />
        </mxCell>
        <mxCell id="wbpmNWgGIaeyIuBArlGF-70" value="" style="rounded=0;whiteSpace=wrap;html=1;fillColor=#C3ABD0;fontColor=#ffffff;strokeColor=#314354;" vertex="1" parent="1">
          <mxGeometry x="690" y="350" width="10" height="10" as="geometry" />
        </mxCell>
        <mxCell id="wbpmNWgGIaeyIuBArlGF-71" value="" style="rounded=0;whiteSpace=wrap;html=1;fillColor=#C3ABD0;fontColor=#ffffff;strokeColor=#314354;" vertex="1" parent="1">
          <mxGeometry x="690" y="340" width="10" height="10" as="geometry" />
        </mxCell>
        <mxCell id="wbpmNWgGIaeyIuBArlGF-72" value="" style="rounded=0;whiteSpace=wrap;html=1;fillColor=#C3ABD0;fontColor=#ffffff;strokeColor=#314354;" vertex="1" parent="1">
          <mxGeometry x="690" y="330" width="10" height="10" as="geometry" />
        </mxCell>
        <mxCell id="wbpmNWgGIaeyIuBArlGF-73" value="" style="rounded=0;whiteSpace=wrap;html=1;fillColor=#C3ABD0;fontColor=#ffffff;strokeColor=#314354;" vertex="1" parent="1">
          <mxGeometry x="690" y="320" width="10" height="10" as="geometry" />
        </mxCell>
        <mxCell id="wbpmNWgGIaeyIuBArlGF-74" value="" style="rounded=1;whiteSpace=wrap;html=1;fontSize=8;fillColor=#FFFFFF;flipV=0;direction=south;" vertex="1" parent="1">
          <mxGeometry x="446.97" y="385" width="157.03" height="100" as="geometry" />
        </mxCell>
        <mxCell id="wbpmNWgGIaeyIuBArlGF-75" value="&lt;font style=&quot;font-size: 11px&quot;&gt;+&lt;/font&gt;" style="ellipse;whiteSpace=wrap;html=1;aspect=fixed;fontSize=8;fillColor=#A680B8;flipV=0;direction=south;" vertex="1" parent="1">
          <mxGeometry x="463" y="391" width="10" height="10" as="geometry" />
        </mxCell>
        <mxCell id="wbpmNWgGIaeyIuBArlGF-76" value="-" style="ellipse;whiteSpace=wrap;html=1;aspect=fixed;fontSize=8;fillColor=#A680B8;flipV=0;direction=south;" vertex="1" parent="1">
          <mxGeometry x="463" y="412" width="10" height="10" as="geometry" />
        </mxCell>
        <mxCell id="wbpmNWgGIaeyIuBArlGF-77" value="-" style="ellipse;whiteSpace=wrap;html=1;aspect=fixed;fontSize=8;fillColor=#A680B8;flipV=0;direction=south;" vertex="1" parent="1">
          <mxGeometry x="463" y="454" width="10" height="10" as="geometry" />
        </mxCell>
        <mxCell id="wbpmNWgGIaeyIuBArlGF-78" value="&lt;font style=&quot;font-size: 8px&quot;&gt;post&amp;nbsp;&lt;/font&gt;" style="text;html=1;strokeColor=none;fillColor=none;align=center;verticalAlign=middle;whiteSpace=wrap;rounded=0;flipV=0;direction=south;" vertex="1" parent="1">
          <mxGeometry x="449.75" y="460" width="40" height="30" as="geometry" />
        </mxCell>
        <mxCell id="wbpmNWgGIaeyIuBArlGF-79" value="+" style="ellipse;whiteSpace=wrap;html=1;aspect=fixed;fontSize=8;fillColor=#FF9933;flipV=0;direction=south;" vertex="1" parent="1">
          <mxGeometry x="525" y="391" width="10" height="10" as="geometry" />
        </mxCell>
        <mxCell id="wbpmNWgGIaeyIuBArlGF-80" value="-" style="ellipse;whiteSpace=wrap;html=1;aspect=fixed;fontSize=8;fillColor=#FF9933;flipV=0;direction=south;" vertex="1" parent="1">
          <mxGeometry x="525" y="412" width="10" height="10" as="geometry" />
        </mxCell>
        <mxCell id="wbpmNWgGIaeyIuBArlGF-81" value="-" style="ellipse;whiteSpace=wrap;html=1;aspect=fixed;fontSize=8;fillColor=#FF9933;flipV=0;direction=south;" vertex="1" parent="1">
          <mxGeometry x="525" y="454" width="10" height="10" as="geometry" />
        </mxCell>
        <mxCell id="wbpmNWgGIaeyIuBArlGF-82" value="+" style="ellipse;whiteSpace=wrap;html=1;aspect=fixed;fontSize=8;fillColor=#E6FFCC;flipV=0;direction=south;" vertex="1" parent="1">
          <mxGeometry x="580" y="389" width="10" height="10" as="geometry" />
        </mxCell>
        <mxCell id="wbpmNWgGIaeyIuBArlGF-83" value="-" style="ellipse;whiteSpace=wrap;html=1;aspect=fixed;fontSize=8;fillColor=#E6FFCC;flipV=0;direction=south;" vertex="1" parent="1">
          <mxGeometry x="580" y="412" width="10" height="10" as="geometry" />
        </mxCell>
        <mxCell id="wbpmNWgGIaeyIuBArlGF-84" value="-" style="ellipse;whiteSpace=wrap;html=1;aspect=fixed;fontSize=8;fillColor=#E6FFCC;flipV=0;direction=south;" vertex="1" parent="1">
          <mxGeometry x="580" y="454" width="10" height="10" as="geometry" />
        </mxCell>
        <mxCell id="wbpmNWgGIaeyIuBArlGF-85" value="" style="endArrow=none;dashed=1;html=1;dashPattern=1 3;strokeWidth=2;rounded=0;entryX=1;entryY=0.5;entryDx=0;entryDy=0;exitX=0;exitY=0.5;exitDx=0;exitDy=0;" edge="1" parent="1">
          <mxGeometry width="50" height="50" relative="1" as="geometry">
            <mxPoint x="468" y="448.0000000000001" as="sourcePoint" />
            <mxPoint x="468" y="423.0000000000001" as="targetPoint" />
          </mxGeometry>
        </mxCell>
        <mxCell id="wbpmNWgGIaeyIuBArlGF-86" value="" style="endArrow=none;dashed=1;html=1;dashPattern=1 3;strokeWidth=2;rounded=0;entryX=1;entryY=0.5;entryDx=0;entryDy=0;" edge="1" parent="1">
          <mxGeometry width="50" height="50" relative="1" as="geometry">
            <mxPoint x="530" y="450" as="sourcePoint" />
            <mxPoint x="530" y="425" as="targetPoint" />
          </mxGeometry>
        </mxCell>
        <mxCell id="wbpmNWgGIaeyIuBArlGF-87" value="" style="endArrow=none;dashed=1;html=1;dashPattern=1 3;strokeWidth=2;rounded=0;entryX=1;entryY=0.5;entryDx=0;entryDy=0;exitX=0;exitY=0.5;exitDx=0;exitDy=0;" edge="1" parent="1" source="wbpmNWgGIaeyIuBArlGF-84" target="wbpmNWgGIaeyIuBArlGF-83">
          <mxGeometry width="50" height="50" relative="1" as="geometry">
            <mxPoint x="542" y="464" as="sourcePoint" />
            <mxPoint x="542" y="439" as="targetPoint" />
          </mxGeometry>
        </mxCell>
        <mxCell id="wbpmNWgGIaeyIuBArlGF-88" value="&lt;span style=&quot;font-size: 8px&quot;&gt;show&lt;/span&gt;" style="text;html=1;strokeColor=none;fillColor=none;align=center;verticalAlign=middle;whiteSpace=wrap;rounded=0;" vertex="1" parent="1">
          <mxGeometry x="507.99" y="461" width="47" height="30" as="geometry" />
        </mxCell>
        <mxCell id="wbpmNWgGIaeyIuBArlGF-89" value="&lt;font style=&quot;font-size: 8px&quot;&gt;video&lt;/font&gt;" style="text;html=1;strokeColor=none;fillColor=none;align=center;verticalAlign=middle;whiteSpace=wrap;rounded=0;" vertex="1" parent="1">
          <mxGeometry x="562" y="462" width="47" height="30" as="geometry" />
        </mxCell>
        <mxCell id="wbpmNWgGIaeyIuBArlGF-90" value="&lt;meta charset=&quot;utf-8&quot;&gt;&lt;span style=&quot;color: rgb(0, 0, 0); font-family: helvetica; font-size: 11px; font-style: normal; font-weight: 400; letter-spacing: normal; text-align: center; text-indent: 0px; text-transform: none; word-spacing: 0px; background-color: rgb(248, 249, 250); display: inline; float: none;&quot;&gt;Sample Generator&lt;/span&gt;" style="text;whiteSpace=wrap;html=1;" vertex="1" parent="1">
          <mxGeometry x="471.49" y="481" width="120" height="30" as="geometry" />
        </mxCell>
        <mxCell id="wbpmNWgGIaeyIuBArlGF-91" style="edgeStyle=orthogonalEdgeStyle;rounded=0;orthogonalLoop=1;jettySize=auto;html=1;exitX=0.5;exitY=0;exitDx=0;exitDy=0;entryX=0.5;entryY=1;entryDx=0;entryDy=0;fontSize=15;" edge="1" parent="1" source="wbpmNWgGIaeyIuBArlGF-92">
          <mxGeometry relative="1" as="geometry">
            <mxPoint x="468.75" y="238.5" as="targetPoint" />
          </mxGeometry>
        </mxCell>
        <mxCell id="wbpmNWgGIaeyIuBArlGF-92" value="&lt;p style=&quot;margin: 0px ; padding: 0px ; color: rgb(51 , 51 , 51) ; font-weight: 400 ; background-color: rgb(255 , 255 , 255)&quot;&gt;&lt;font style=&quot;line-height: 0.7 ; font-size: 11px&quot;&gt;X&lt;/font&gt;&lt;/p&gt;" style="ellipse;whiteSpace=wrap;html=1;aspect=fixed;fontSize=8;fillColor=#FFFFFF;align=center;" vertex="1" parent="1">
          <mxGeometry x="459" y="260" width="20" height="20" as="geometry" />
        </mxCell>
        <mxCell id="wbpmNWgGIaeyIuBArlGF-93" style="edgeStyle=orthogonalEdgeStyle;rounded=0;orthogonalLoop=1;jettySize=auto;html=1;exitX=0.5;exitY=0;exitDx=0;exitDy=0;entryX=0.5;entryY=1;entryDx=0;entryDy=0;fontSize=15;" edge="1" parent="1" source="wbpmNWgGIaeyIuBArlGF-94">
          <mxGeometry relative="1" as="geometry">
            <mxPoint x="529.49" y="238.5" as="targetPoint" />
          </mxGeometry>
        </mxCell>
        <mxCell id="wbpmNWgGIaeyIuBArlGF-94" value="&lt;p style=&quot;margin: 0px ; padding: 0px ; color: rgb(51 , 51 , 51) ; font-weight: 400 ; background-color: rgb(255 , 255 , 255)&quot;&gt;&lt;font style=&quot;line-height: 0.7 ; font-size: 12px&quot;&gt;X&lt;/font&gt;&lt;/p&gt;" style="ellipse;whiteSpace=wrap;html=1;aspect=fixed;fontSize=8;fillColor=#FFFFFF;align=center;" vertex="1" parent="1">
          <mxGeometry x="519.99" y="260" width="20" height="20" as="geometry" />
        </mxCell>
        <mxCell id="wbpmNWgGIaeyIuBArlGF-95" style="edgeStyle=orthogonalEdgeStyle;rounded=0;orthogonalLoop=1;jettySize=auto;html=1;exitX=0.5;exitY=0;exitDx=0;exitDy=0;entryX=0.5;entryY=1;entryDx=0;entryDy=0;fontSize=15;" edge="1" parent="1" source="wbpmNWgGIaeyIuBArlGF-96">
          <mxGeometry relative="1" as="geometry">
            <mxPoint x="584" y="238.5" as="targetPoint" />
          </mxGeometry>
        </mxCell>
        <mxCell id="wbpmNWgGIaeyIuBArlGF-96" value="&lt;p style=&quot;margin: 0px ; padding: 0px ; color: rgb(51 , 51 , 51) ; font-weight: 400 ; background-color: rgb(255 , 255 , 255)&quot;&gt;&lt;font style=&quot;line-height: 0.7 ; font-size: 11px&quot;&gt;X&lt;/font&gt;&lt;/p&gt;" style="ellipse;whiteSpace=wrap;html=1;aspect=fixed;fontSize=8;fillColor=#FFFFFF;align=center;" vertex="1" parent="1">
          <mxGeometry x="573" y="260" width="20" height="20" as="geometry" />
        </mxCell>
        <mxCell id="wbpmNWgGIaeyIuBArlGF-97" style="edgeStyle=orthogonalEdgeStyle;rounded=0;orthogonalLoop=1;jettySize=auto;html=1;exitX=0.5;exitY=0;exitDx=0;exitDy=0;entryX=0.5;entryY=1;entryDx=0;entryDy=0;fontSize=15;" edge="1" parent="1" source="wbpmNWgGIaeyIuBArlGF-98">
          <mxGeometry relative="1" as="geometry">
            <mxPoint x="671.75" y="239.5" as="targetPoint" />
          </mxGeometry>
        </mxCell>
        <mxCell id="wbpmNWgGIaeyIuBArlGF-98" value="&lt;p style=&quot;margin: 0px ; padding: 0px ; color: rgb(51 , 51 , 51) ; font-weight: 400 ; background-color: rgb(255 , 255 , 255)&quot;&gt;&lt;font style=&quot;line-height: 0.7 ; font-size: 12px&quot;&gt;X&lt;/font&gt;&lt;/p&gt;" style="ellipse;whiteSpace=wrap;html=1;aspect=fixed;fontSize=8;fillColor=#FFFFFF;align=center;" vertex="1" parent="1">
          <mxGeometry x="661.75" y="260" width="20" height="20" as="geometry" />
        </mxCell>
        <mxCell id="wbpmNWgGIaeyIuBArlGF-99" value="" style="edgeStyle=orthogonalEdgeStyle;rounded=0;orthogonalLoop=1;jettySize=auto;html=1;fontSize=15;" edge="1" parent="1" source="wbpmNWgGIaeyIuBArlGF-100">
          <mxGeometry relative="1" as="geometry">
            <mxPoint x="672" y="280" as="targetPoint" />
            <Array as="points">
              <mxPoint x="672" y="290" />
              <mxPoint x="672" y="290" />
            </Array>
          </mxGeometry>
        </mxCell>
        <mxCell id="wbpmNWgGIaeyIuBArlGF-100" value="" style="shape=curlyBracket;whiteSpace=wrap;html=1;rounded=1;flipH=1;fillColor=#E6E6E6;gradientColor=#ffffff;rotation=-90;" vertex="1" parent="1">
          <mxGeometry x="662" y="280" width="20" height="50" as="geometry" />
        </mxCell>
        <mxCell id="wbpmNWgGIaeyIuBArlGF-101" value="" style="endArrow=classic;html=1;rounded=0;fontSize=15;exitX=0.1;exitY=0.5;exitDx=0;exitDy=0;exitPerimeter=0;entryX=0.5;entryY=1;entryDx=0;entryDy=0;" edge="1" parent="1" source="wbpmNWgGIaeyIuBArlGF-50" target="wbpmNWgGIaeyIuBArlGF-92">
          <mxGeometry width="50" height="50" relative="1" as="geometry">
            <mxPoint x="460" y="340" as="sourcePoint" />
            <mxPoint x="510" y="290" as="targetPoint" />
          </mxGeometry>
        </mxCell>
        <mxCell id="wbpmNWgGIaeyIuBArlGF-102" value="" style="endArrow=classic;html=1;rounded=0;fontSize=15;" edge="1" parent="1">
          <mxGeometry width="50" height="50" relative="1" as="geometry">
            <mxPoint x="359.9999999999999" y="298" as="sourcePoint" />
            <mxPoint x="530" y="278" as="targetPoint" />
          </mxGeometry>
        </mxCell>
        <mxCell id="wbpmNWgGIaeyIuBArlGF-103" value="" style="endArrow=classic;html=1;rounded=0;fontSize=15;entryX=0.337;entryY=1.061;entryDx=0;entryDy=0;entryPerimeter=0;" edge="1" parent="1">
          <mxGeometry width="50" height="50" relative="1" as="geometry">
            <mxPoint x="359.9999999999999" y="298.9999999999999" as="sourcePoint" />
            <mxPoint x="579.74" y="280.22" as="targetPoint" />
          </mxGeometry>
        </mxCell>
        <mxCell id="wbpmNWgGIaeyIuBArlGF-104" value="" style="group" vertex="1" connectable="0" parent="1">
          <mxGeometry x="275" y="417" width="72" height="100" as="geometry" />
        </mxCell>
        <mxCell id="wbpmNWgGIaeyIuBArlGF-105" value="" style="rounded=1;whiteSpace=wrap;html=1;dashed=1;fontSize=8;fillColor=#FFFFFF;" vertex="1" parent="wbpmNWgGIaeyIuBArlGF-104">
          <mxGeometry x="-1" y="-5" width="68" height="70" as="geometry" />
        </mxCell>
        <mxCell id="wbpmNWgGIaeyIuBArlGF-106" value="Basic" style="text;html=1;strokeColor=none;fillColor=none;align=center;verticalAlign=middle;whiteSpace=wrap;rounded=0;fontSize=11;" vertex="1" parent="wbpmNWgGIaeyIuBArlGF-104">
          <mxGeometry x="1" y="60" width="60" height="30" as="geometry" />
        </mxCell>
        <mxCell id="wbpmNWgGIaeyIuBArlGF-107" value="" style="ellipse;whiteSpace=wrap;html=1;aspect=fixed;fontSize=6;fillColor=#647687;fontColor=#ffffff;strokeColor=#314354;direction=west;" vertex="1" parent="wbpmNWgGIaeyIuBArlGF-104">
          <mxGeometry x="7.5" y="50" width="10" height="10" as="geometry" />
        </mxCell>
        <mxCell id="wbpmNWgGIaeyIuBArlGF-108" value="" style="ellipse;whiteSpace=wrap;html=1;aspect=fixed;fontSize=6;fillColor=#999999;fontColor=#ffffff;strokeColor=#314354;direction=west;" vertex="1" parent="wbpmNWgGIaeyIuBArlGF-104">
          <mxGeometry x="27.5" y="50" width="10" height="10" as="geometry" />
        </mxCell>
        <mxCell id="wbpmNWgGIaeyIuBArlGF-109" value="" style="ellipse;whiteSpace=wrap;html=1;aspect=fixed;fontSize=6;fillColor=#E6E6E6;fontColor=#ffffff;strokeColor=#314354;direction=west;" vertex="1" parent="wbpmNWgGIaeyIuBArlGF-104">
          <mxGeometry x="47.5" y="50" width="10" height="10" as="geometry" />
        </mxCell>
        <mxCell id="wbpmNWgGIaeyIuBArlGF-110" value="" style="rounded=0;whiteSpace=wrap;html=1;fillColor=#647687;fontColor=#ffffff;strokeColor=#314354;" vertex="1" parent="wbpmNWgGIaeyIuBArlGF-104">
          <mxGeometry x="7.5" y="30" width="10" height="10" as="geometry" />
        </mxCell>
        <mxCell id="wbpmNWgGIaeyIuBArlGF-111" value="" style="rounded=0;whiteSpace=wrap;html=1;fillColor=#647687;fontColor=#ffffff;strokeColor=#314354;" vertex="1" parent="wbpmNWgGIaeyIuBArlGF-104">
          <mxGeometry x="7.5" width="10" height="10" as="geometry" />
        </mxCell>
        <mxCell id="wbpmNWgGIaeyIuBArlGF-112" value="" style="rounded=0;whiteSpace=wrap;html=1;fillColor=#647687;fontColor=#ffffff;strokeColor=#314354;" vertex="1" parent="wbpmNWgGIaeyIuBArlGF-104">
          <mxGeometry x="7.5" y="10" width="10" height="10" as="geometry" />
        </mxCell>
        <mxCell id="wbpmNWgGIaeyIuBArlGF-113" value="" style="rounded=0;whiteSpace=wrap;html=1;fillColor=#647687;fontColor=#ffffff;strokeColor=#314354;" vertex="1" parent="wbpmNWgGIaeyIuBArlGF-104">
          <mxGeometry x="7.5" y="20" width="10" height="10" as="geometry" />
        </mxCell>
        <mxCell id="wbpmNWgGIaeyIuBArlGF-114" value="" style="rounded=0;whiteSpace=wrap;html=1;fillColor=#999999;fontColor=#ffffff;strokeColor=#314354;" vertex="1" parent="wbpmNWgGIaeyIuBArlGF-104">
          <mxGeometry x="27.5" y="30" width="10" height="10" as="geometry" />
        </mxCell>
        <mxCell id="wbpmNWgGIaeyIuBArlGF-115" value="" style="rounded=0;whiteSpace=wrap;html=1;fillColor=#999999;fontColor=#ffffff;strokeColor=#314354;" vertex="1" parent="wbpmNWgGIaeyIuBArlGF-104">
          <mxGeometry x="27.5" y="20" width="10" height="10" as="geometry" />
        </mxCell>
        <mxCell id="wbpmNWgGIaeyIuBArlGF-116" value="" style="rounded=0;whiteSpace=wrap;html=1;fillColor=#999999;fontColor=#ffffff;strokeColor=#314354;" vertex="1" parent="wbpmNWgGIaeyIuBArlGF-104">
          <mxGeometry x="27.5" width="10" height="10" as="geometry" />
        </mxCell>
        <mxCell id="wbpmNWgGIaeyIuBArlGF-117" value="" style="rounded=0;whiteSpace=wrap;html=1;fillColor=#999999;fontColor=#ffffff;strokeColor=#314354;" vertex="1" parent="wbpmNWgGIaeyIuBArlGF-104">
          <mxGeometry x="27.5" y="10" width="10" height="10" as="geometry" />
        </mxCell>
        <mxCell id="wbpmNWgGIaeyIuBArlGF-118" value="" style="rounded=0;whiteSpace=wrap;html=1;fillColor=#E6E6E6;fontColor=#ffffff;strokeColor=#314354;" vertex="1" parent="wbpmNWgGIaeyIuBArlGF-104">
          <mxGeometry x="47.5" width="10" height="10" as="geometry" />
        </mxCell>
        <mxCell id="wbpmNWgGIaeyIuBArlGF-119" value="" style="rounded=0;whiteSpace=wrap;html=1;fillColor=#E6E6E6;fontColor=#ffffff;strokeColor=#314354;" vertex="1" parent="wbpmNWgGIaeyIuBArlGF-104">
          <mxGeometry x="47.5" y="30" width="10" height="10" as="geometry" />
        </mxCell>
        <mxCell id="wbpmNWgGIaeyIuBArlGF-120" value="" style="rounded=0;whiteSpace=wrap;html=1;fillColor=#E6E6E6;fontColor=#ffffff;strokeColor=#314354;" vertex="1" parent="wbpmNWgGIaeyIuBArlGF-104">
          <mxGeometry x="47.5" y="20" width="10" height="10" as="geometry" />
        </mxCell>
        <mxCell id="wbpmNWgGIaeyIuBArlGF-121" value="" style="rounded=0;whiteSpace=wrap;html=1;fillColor=#E6E6E6;fontColor=#ffffff;strokeColor=#314354;" vertex="1" parent="wbpmNWgGIaeyIuBArlGF-104">
          <mxGeometry x="47.5" y="10" width="10" height="10" as="geometry" />
        </mxCell>
        <mxCell id="wbpmNWgGIaeyIuBArlGF-122" style="edgeStyle=orthogonalEdgeStyle;rounded=0;orthogonalLoop=1;jettySize=auto;html=1;exitX=0.5;exitY=0;exitDx=0;exitDy=0;fontSize=12;" edge="1" parent="1" source="wbpmNWgGIaeyIuBArlGF-123">
          <mxGeometry relative="1" as="geometry">
            <mxPoint x="528" y="190" as="targetPoint" />
          </mxGeometry>
        </mxCell>
        <mxCell id="wbpmNWgGIaeyIuBArlGF-123" value="&lt;p&gt;&lt;span style=&quot;color: rgb(0 , 0 , 0) ; font-family: &amp;#34;helvetica&amp;#34; ; font-style: normal ; font-weight: 400 ; letter-spacing: normal ; text-align: center ; text-indent: 0px ; text-transform: none ; word-spacing: 0px ; background-color: rgb(248 , 249 , 250) ; display: inline ; float: none&quot;&gt;&lt;font style=&quot;font-size: 9px&quot;&gt;loss_s&lt;/font&gt;&lt;/span&gt;&lt;/p&gt;" style="rounded=1;whiteSpace=wrap;html=1;fontSize=11;fillColor=#FFFFFF;" vertex="1" parent="1">
          <mxGeometry x="503.49" y="220" width="49" height="19" as="geometry" />
        </mxCell>
        <mxCell id="wbpmNWgGIaeyIuBArlGF-124" style="edgeStyle=orthogonalEdgeStyle;rounded=0;orthogonalLoop=1;jettySize=auto;html=1;exitX=0.5;exitY=0;exitDx=0;exitDy=0;entryX=0.555;entryY=1.131;entryDx=0;entryDy=0;entryPerimeter=0;fontSize=12;" edge="1" parent="1" source="wbpmNWgGIaeyIuBArlGF-125" target="wbpmNWgGIaeyIuBArlGF-128">
          <mxGeometry relative="1" as="geometry" />
        </mxCell>
        <mxCell id="wbpmNWgGIaeyIuBArlGF-125" value="&lt;p&gt;&lt;span style=&quot;color: rgb(0 , 0 , 0) ; font-family: &amp;#34;helvetica&amp;#34; ; font-style: normal ; font-weight: 400 ; letter-spacing: normal ; text-align: center ; text-indent: 0px ; text-transform: none ; word-spacing: 0px ; background-color: rgb(248 , 249 , 250) ; display: inline ; float: none&quot;&gt;&lt;font style=&quot;font-size: 9px&quot;&gt;loss_v&lt;/font&gt;&lt;/span&gt;&lt;/p&gt;" style="rounded=1;whiteSpace=wrap;html=1;fontSize=11;fillColor=#FFFFFF;" vertex="1" parent="1">
          <mxGeometry x="559.5" y="220" width="49" height="19" as="geometry" />
        </mxCell>
        <mxCell id="wbpmNWgGIaeyIuBArlGF-126" style="edgeStyle=orthogonalEdgeStyle;rounded=0;orthogonalLoop=1;jettySize=auto;html=1;exitX=0.5;exitY=0;exitDx=0;exitDy=0;fontSize=12;" edge="1" parent="1" source="wbpmNWgGIaeyIuBArlGF-127">
          <mxGeometry relative="1" as="geometry">
            <mxPoint x="670.7586206896551" y="190" as="targetPoint" />
          </mxGeometry>
        </mxCell>
        <mxCell id="wbpmNWgGIaeyIuBArlGF-127" value="&lt;p&gt;&lt;span style=&quot;color: rgb(0 , 0 , 0) ; font-family: &amp;#34;helvetica&amp;#34; ; font-style: normal ; font-weight: 400 ; letter-spacing: normal ; text-align: center ; text-indent: 0px ; text-transform: none ; word-spacing: 0px ; background-color: rgb(248 , 249 , 250) ; display: inline ; float: none&quot;&gt;&lt;font style=&quot;font-size: 9px&quot;&gt;loss_align&lt;/font&gt;&lt;/span&gt;&lt;/p&gt;" style="rounded=1;whiteSpace=wrap;html=1;fontSize=11;fillColor=#FFFFFF;" vertex="1" parent="1">
          <mxGeometry x="636" y="220" width="70" height="19" as="geometry" />
        </mxCell>
        <mxCell id="wbpmNWgGIaeyIuBArlGF-128" value="&lt;p&gt;&lt;span style=&quot;color: rgb(0 , 0 , 0) ; font-family: &amp;#34;helvetica&amp;#34; ; font-style: normal ; font-weight: 400 ; letter-spacing: normal ; text-align: center ; text-indent: 0px ; text-transform: none ; word-spacing: 0px ; background-color: rgb(248 , 249 , 250) ; display: inline ; float: none&quot;&gt;&lt;font style=&quot;font-size: 9px&quot;&gt;Loss Fusion&lt;/font&gt;&lt;/span&gt;&lt;/p&gt;" style="rounded=1;whiteSpace=wrap;html=1;fontSize=11;fillColor=#FFFFFF;" vertex="1" parent="1">
          <mxGeometry x="440" y="170" width="260" height="19" as="geometry" />
        </mxCell>
      </root>
    </mxGraphModel>
  </diagram>
</mxfile>
